<?xml version="1.0" encoding="utf-8"?>
<!-- Generator: Adobe Illustrator 16.0.0, SVG Export Plug-In . SVG Version: 6.00 Build 0)  -->
<!DOCTYPE svg PUBLIC "-//W3C//DTD SVG 1.1//EN" "http://www.w3.org/Graphics/SVG/1.1/DTD/svg11.dtd">
<svg version="1.1" xmlns="http://www.w3.org/2000/svg" xmlns:xlink="http://www.w3.org/1999/xlink" x="0px" y="0px"
	 width="964.452px" height="964.452px" viewBox="0 0 964.452 964.452" enable-background="new 0 0 964.452 964.452"
	 xml:space="preserve">
<g id="Layer_1">
	<g>
		<path fill="#FFFFFF" d="M227.543,204.083c0.742,0.743,1.235,1.299,1.485,1.671c5.319,6.436,7.982,15.842,7.982,28.215
			c0,12.376-2.663,21.783-7.982,28.216c-5.569,6.807-14.108,10.209-25.617,10.209h-8.91h-17.449v-6.497h6.497h2.228h2.228h15.407
			c9.281,0,16.149-2.66,20.605-7.982c4.206-5.073,6.311-13.055,6.311-23.946c0-10.767-2.105-18.81-6.311-24.132
			c-2.106-2.474-4.766-4.455-7.982-5.94c9.528-3.834,14.293-13.797,14.293-29.886c0-10.888-2.167-18.902-6.497-24.039
			c-4.333-5.134-11.138-7.704-20.419-7.704h-17.635h-2.228h-6.497v-6.683h26.359c11.509,0,20.048,3.466,25.617,10.396
			c5.319,6.436,7.982,15.778,7.982,28.03c0,12.376-2.663,21.782-7.982,28.215C228.532,202.97,228.036,203.59,227.543,204.083z
			 M177.052,261.443v-6.497V146.539h6.497v114.904H177.052z M226.058,174.012c0,9.777-1.795,16.863-5.383,21.254
			c-3.59,4.394-9.345,6.59-17.263,6.59h-15.407v-55.317h15.407c8.043,0,13.797,2.167,17.263,6.497
			C224.262,157.369,226.058,164.359,226.058,174.012z M188.004,206.125h15.407c7.918,0,13.673,2.199,17.263,6.59
			c3.588,4.394,5.383,11.48,5.383,21.254c0,9.531-1.795,16.585-5.383,21.162c-3.466,4.208-9.22,6.312-17.263,6.312h-15.407V206.125z
			 M194.501,195.173h8.91c3.959,0,6.804-0.432,8.539-1.299c1.731-0.864,2.906-1.792,3.527-2.785
			c2.599-3.092,3.898-8.785,3.898-17.078c0-4.826-0.403-8.632-1.207-11.416c-0.806-2.785-1.92-4.855-3.341-6.219
			c-1.424-1.36-3.126-2.228-5.104-2.599c-1.981-0.372-4.084-0.557-6.312-0.557h-8.91V195.173z M194.501,254.946h8.91
			c2.228,0,4.33-0.186,6.312-0.557c1.978-0.372,3.681-1.236,5.104-2.599c1.421-1.36,2.535-3.463,3.341-6.311
			c0.804-2.846,1.207-6.683,1.207-11.509c0-4.948-0.435-8.817-1.299-11.602c-0.867-2.785-2.013-4.887-3.434-6.312
			c-1.424-1.421-3.095-2.32-5.012-2.691c-1.92-0.372-3.991-0.557-6.218-0.557h-8.91V254.946z"/>
		<path fill="#FFFFFF" d="M299.937,205.197c3.341,3.22,5.908,7.054,7.704,11.509c1.792,4.455,2.691,9.531,2.691,15.221v40.467
			h-6.683v-40.467c0-9.157-2.663-16.396-7.982-21.718c-2.228-1.978-4.826-3.649-7.796-5.012
			c10.396-3.959,15.593-14.168,15.593-30.629c0-11.013-2.228-19.12-6.683-24.317c-4.58-5.319-11.758-7.982-21.533-7.982h-19.677
			h-2.228h-6.497v-6.683h28.401c11.755,0,20.604,3.466,26.545,10.396c5.444,6.311,8.167,15.842,8.167,28.586
			c0,12.623-2.724,22.215-8.167,28.772c-0.25,0.25-0.528,0.557-0.835,0.928C300.647,204.641,300.308,204.951,299.937,205.197z
			 M253.344,272.395h-6.497V146.539h6.497V272.395z M273.021,202.784h-15.222v-56.246h17.449c8.414,0,14.479,2.167,18.191,6.497
			c3.713,4.455,5.569,11.634,5.569,21.533c0,10.024-1.856,17.235-5.569,21.626c-3.712,4.394-9.777,6.59-18.191,6.59H273.021z
			 M292.697,272.395v-40.467c0-12.002-5.818-18.006-17.449-18.006h-8.725h-2.228v58.473h-6.497v-65.156h15.222h2.228
			c7.671,0,13.612,2.135,17.82,6.404c4.206,4.27,6.312,10.366,6.312,18.284v40.467H292.697z M266.523,196.287h8.725
			c4.702,0,7.95-0.557,9.746-1.67c1.792-1.114,2.938-1.979,3.434-2.599c2.72-3.463,4.083-9.281,4.083-17.449
			c0-4.577-0.371-8.26-1.114-11.045c-0.742-2.784-1.827-4.948-3.249-6.497c-1.424-1.546-3.219-2.567-5.383-3.063
			c-2.167-0.493-4.673-0.743-7.518-0.743h-10.952v43.066H266.523z"/>
		<path fill="#FFFFFF" d="M371.773,135.586l31.743,136.809h-6.868l-29.887-129.012h-4.083l-29.886,129.012h-6.683l31.742-136.809
			h1.485h5.197h0.372h5.198H371.773z M347.642,227.659h34.156l10.396,44.736h-6.683l-8.91-38.054h-23.76l-8.725,38.054h-6.868
			L347.642,227.659z M348.57,223.389l16.15-69.24l15.964,69.24H348.57z M372.516,216.707l-7.796-33.414l-7.796,33.414H372.516z"/>
		<path fill="#FFFFFF" d="M469.6,183.293v-8.725c0-10.642-2.106-18.685-6.312-24.131c-4.455-5.444-10.951-8.168-19.49-8.168
			s-15.036,2.724-19.491,8.168c-4.333,5.693-6.497,13.736-6.497,24.131v58.845c0,6.683,0.803,12.159,2.413,16.428
			c1.607,4.269,3.649,7.582,6.126,9.931c2.474,2.352,5.258,3.962,8.353,4.826c3.092,0.867,6.126,1.299,9.096,1.299
			c2.97,0,5.969-0.432,9.003-1.299c3.03-0.864,5.783-2.474,8.261-4.826c2.474-2.35,4.516-5.662,6.125-9.931
			c1.607-4.27,2.414-9.746,2.414-16.428v-8.91h6.682v8.91c0,12.005-2.662,21.347-7.981,28.03c-1.981,2.477-4.89,4.919-8.725,7.333
			c-3.837,2.413-9.097,3.62-15.778,3.62c-3.342,0-6.312-0.339-8.911-1.021c-2.599-0.679-4.919-1.546-6.961-2.599
			c-2.042-1.05-3.776-2.228-5.198-3.527c-1.424-1.3-2.63-2.567-3.62-3.806c-5.198-6.433-7.796-15.778-7.796-28.03v-58.845
			c0-12.126,2.599-21.469,7.796-28.03c0.989-1.235,2.196-2.506,3.62-3.805c1.421-1.3,3.156-2.474,5.198-3.527
			c2.042-1.05,4.362-1.917,6.961-2.599c2.599-0.679,5.569-1.021,8.911-1.021c6.682,0,11.941,1.207,15.778,3.62
			c3.835,2.414,6.743,4.858,8.725,7.333c5.319,6.683,7.981,16.028,7.981,28.03v8.725H469.6z M443.797,146.539
			c14.354,0,21.533,9.345,21.533,28.03v8.725h-6.684v-8.725c0-5.319-0.527-9.435-1.578-12.344c-1.053-2.906-2.352-5.012-3.897-6.311
			c-1.549-1.3-3.188-2.071-4.919-2.321c-1.734-0.246-3.22-0.371-4.455-0.371c-1.363,0-2.877,0.125-4.548,0.371
			c-1.67,0.25-3.312,1.021-4.919,2.321c-1.61,1.299-2.941,3.405-3.991,6.311c-1.053,2.909-1.578,7.025-1.578,12.344v58.845
			c0,8.046,1.421,13.8,4.27,17.263c0.618,0.992,1.731,1.949,3.341,2.877c1.607,0.928,4.083,1.392,7.425,1.392
			c3.341,0,5.783-0.464,7.332-1.392c1.546-0.928,2.691-1.885,3.434-2.877c2.721-3.463,4.084-9.217,4.084-17.263v-8.91h6.684v8.91
			c0,18.688-7.18,28.03-21.533,28.03c-14.357,0-21.533-9.342-21.533-28.03v-58.845C422.264,155.884,429.439,146.539,443.797,146.539
			z"/>
		<path fill="#FFFFFF" d="M493.916,272.209h-6.498v-49.563h-0.186l0.186-0.371v-86.875h6.498V272.209z M498.371,135.401h6.496
			v59.772l38.797-59.772h7.611l-52.904,81.862V135.401z M512.664,203.341l38.055,68.869h-7.426l-31.186-56.06l-7.24,11.323v44.737
			h-6.496v-46.779L512.664,203.341z M556.473,135.401h8.168l-41.582,64.042l40.281,72.767h-7.424l-40.652-73.138L556.473,135.401z"
			/>
		<path fill="#FFFFFF" d="M578.56,265.898h50.12v6.497h-56.617V135.586h56.617v6.683h-50.12v59.587v4.27V265.898z M628.68,153.221
			h-39.168v41.952h39.168v6.683h-45.665v-55.317h45.665V153.221z M628.68,212.808h-39.168v42.138h39.168v6.497h-45.665v-55.317
			h45.665V212.808z"/>
		<path fill="#FFFFFF" d="M675.828,142.269h-36.569v-6.683h77.407v6.683h-36.568H675.828z M675.828,272.395h-6.683V153.221h-29.887
			v-6.683h36.569V272.395z M680.098,146.539h36.568v6.683H686.78v119.174h-6.683v-6.497V146.539z"/>
		<path fill="#FFFFFF" d="M737.828,202.227c-7.425-7.175-11.138-16.335-11.138-27.473c0-5.815,0.771-11.138,2.32-15.964
			c1.546-4.826,3.773-8.939,6.683-12.344c2.906-3.402,6.372-6.062,10.396-7.982c4.02-1.917,8.446-2.877,13.272-2.877
			c6.683,0,11.973,1.178,15.871,3.527c3.898,2.353,6.836,4.766,8.817,7.24c5.319,6.807,7.982,16.274,7.982,28.401v8.725h-6.683
			v-8.725c0-10.889-2.167-18.935-6.497-24.132c-4.334-5.569-10.831-8.354-19.491-8.354c-8.417,0-14.976,3.22-19.677,9.653
			c-4.333,5.818-6.497,13.429-6.497,22.833c0,5.322,0.896,9.838,2.691,13.551c1.793,3.712,3.959,6.775,6.497,9.188
			c2.535,2.413,5.166,4.301,7.89,5.662c2.721,1.363,4.948,2.414,6.683,3.156l3.155,1.485c1.607,0.621,3.588,1.485,5.94,2.599
			c2.35,1.114,4.641,2.691,6.868,4.733s4.145,4.641,5.755,7.796c1.606,3.156,2.413,7.025,2.413,11.602
			c0,8.539-1.921,15.161-5.755,19.862c-3.837,4.705-9.159,7.054-15.964,7.054c-7.304,0-12.687-2.164-16.15-6.497
			c-3.712-4.577-5.568-11.694-5.568-21.347v-8.725h6.497v8.725c0,8.046,1.421,13.8,4.27,17.264c0.617,0.867,1.731,1.763,3.341,2.691
			c1.607,0.928,4.146,1.392,7.611,1.392c3.341,0,6.001-0.71,7.981-2.135c1.979-1.421,3.495-3.156,4.548-5.197
			c1.051-2.042,1.732-4.27,2.042-6.683c0.308-2.414,0.465-4.548,0.465-6.404c0-3.217-0.496-5.94-1.485-8.168
			c-0.992-2.228-2.291-4.113-3.898-5.662c-1.609-1.546-3.405-2.845-5.383-3.898c-1.981-1.05-3.962-2.01-5.94-2.877l-3.341-1.485
			c-1.981-0.864-4.487-2.071-7.519-3.62C743.797,207.271,740.798,205.076,737.828,202.227z M780.522,207.239
			c7.672,7.054,11.51,16.15,11.51,27.288c0,10.52-2.6,19.244-7.797,26.173c-6.064,7.796-14.357,11.695-24.874,11.695
			c-10.892,0-19.12-3.527-24.688-10.581c-5.322-6.558-7.982-15.964-7.982-28.215v-8.725h6.497v8.725
			c0,10.645,2.164,18.688,6.497,24.132c4.455,5.447,11.013,8.167,19.677,8.167c4.084,0,7.796-0.771,11.138-2.32
			c3.341-1.546,6.126-3.866,8.354-6.961c2.103-2.721,3.712-5.969,4.826-9.746c1.113-3.773,1.671-7.889,1.671-12.344
			c0-5.319-0.929-9.807-2.785-13.458c-1.856-3.649-4.055-6.651-6.59-9.003c-2.537-2.349-5.137-4.176-7.796-5.476
			c-2.663-1.299-4.798-2.256-6.404-2.877l-2.97-1.299c-1.735-0.743-3.806-1.732-6.219-2.97c-2.413-1.236-4.733-2.938-6.961-5.105
			c-2.228-2.164-4.116-4.826-5.662-7.982c-1.549-3.156-2.32-7.022-2.32-11.602c0-3.217,0.371-6.497,1.113-9.838
			c0.743-3.341,1.979-6.373,3.713-9.096c1.731-2.72,3.991-4.948,6.775-6.683c2.784-1.731,6.155-2.599,10.117-2.599
			c7.176,0,12.559,2.228,16.149,6.683c3.713,4.705,5.569,11.88,5.569,21.533v8.725h-6.683v-8.725c0-5.32-0.528-9.467-1.578-12.438
			c-1.053-2.97-2.385-5.104-3.991-6.404c-1.609-1.3-3.28-2.071-5.012-2.321c-1.734-0.246-3.22-0.371-4.455-0.371
			c-3.591,0-6.375,0.867-8.354,2.599c-1.981,1.735-3.498,3.806-4.548,6.219c-1.053,2.413-1.702,4.826-1.949,7.24
			c-0.249,2.413-0.371,4.24-0.371,5.476c0,3.219,0.493,5.972,1.485,8.26c0.988,2.292,2.288,4.27,3.897,5.94
			c1.607,1.671,3.435,3.095,5.477,4.27c2.042,1.178,4.177,2.199,6.404,3.063l2.97,1.299c1.731,0.743,4.113,1.828,7.146,3.249
			C774.551,202.259,777.553,204.394,780.522,207.239z"/>
	</g>
	<g>
		<path fill="#FFFFFF" d="M174.054,814.908V444.162h47.287v323.46h114.191v47.286H174.054z"/>
		<path fill="#FFFFFF" d="M368.224,815.411V444.665h47.287v370.746H368.224z"/>
		<path fill="#FFFFFF" d="M502.031,491.952v114.191h106.145v47.286H502.031v161.981h-47.285V444.665h153.43v47.287H502.031z"/>
		<path fill="#FFFFFF" d="M689.162,491.952v114.191h106.144v47.286H689.162v114.695h106.144v47.286h-153.43V444.665h153.43v47.287
			H689.162z"/>
	</g>
	<g>
		<path fill="#FFFFFF" d="M412.82,308.386v45.867h33.373v4.903H412.82v50.929h-4.903V303.482h38.276v4.903H412.82z"/>
		<path fill="#FFFFFF" d="M479.723,410.085c-2.53,0-5.141-0.368-7.828-1.106c-2.689-0.737-5.141-2.16-7.355-4.271
			c-2.214-2.107-4.008-4.982-5.377-8.62c-1.372-3.638-2.057-8.407-2.057-14.314v-50.138c0-9.067,1.844-16.026,5.535-20.878
			c3.9-4.849,9.594-7.275,17.082-7.275c7.592,0,13.286,2.427,17.082,7.275c3.796,4.745,5.693,11.704,5.693,20.878v50.138
			c0,5.907-0.687,10.676-2.056,14.314c-1.372,3.637-3.163,6.512-5.378,8.62c-2.214,2.111-4.666,3.534-7.354,4.271
			C485.021,409.717,482.357,410.085,479.723,410.085z M479.723,308.386c-6.01,0-10.387,1.846-13.127,5.536
			c-3.06,3.902-4.587,9.806-4.587,17.714v50.138c0,8.015,1.527,13.973,4.587,17.873c2.847,3.691,7.221,5.535,13.127,5.535
			c5.798,0,10.227-1.844,13.286-5.535c2.95-3.69,4.429-9.648,4.429-17.873v-50.138c0-8.118-1.479-14.022-4.429-17.714
			C490.056,310.231,485.627,308.386,479.723,308.386z"/>
		<path fill="#FFFFFF" d="M550.578,361.529c4.745,4.535,7.117,10.81,7.117,18.821v29.577h-5.061V380.35
			c0-6.43-1.74-11.413-5.22-14.946c-3.479-3.532-8.383-5.299-14.71-5.299h-2.371h-11.863v49.822h-4.902V303.324h19.137
			c8.541,0,14.789,2.293,18.743,6.88c3.954,4.586,5.931,11.731,5.931,21.431c0,9.49-1.952,16.555-5.852,21.194
			c-1.688,2.004-3.796,3.638-6.326,4.903C547.203,358.682,548.996,359.947,550.578,361.529z M532.705,355.044
			c7.063,0,12.073-1.792,15.026-5.377c3.163-3.796,4.745-9.806,4.745-18.031c0-8.329-1.53-14.287-4.587-17.873
			c-3.06-3.583-8.121-5.377-15.185-5.377h-14.234v46.658h11.863H532.705z"/>
	</g>
	<polyline fill="none" stroke="#FFFFFF" stroke-width="18" stroke-miterlimit="10" points="872.077,804.448 832.541,804.448 
		832.541,142.875 872.077,142.875 	"/>
	<polyline fill="none" stroke="#FFFFFF" stroke-width="18" stroke-miterlimit="10" points="96.005,804.156 135.541,804.156 
		135.541,142.916 96.005,142.916 	"/>
	<line fill="#FFFFFF" stroke="#FFFFFF" stroke-width="5" stroke-miterlimit="10" x1="386.637" y1="357" x2="133.309" y2="357"/>
	<line fill="#FFFFFF" stroke="#FFFFFF" stroke-width="5" stroke-miterlimit="10" x1="832.541" y1="357" x2="575.628" y2="357"/>
</g>
<g id="Layer_2">
</g>
</svg>
