<?xml version="1.0" encoding="utf-8"?>
<!-- Generator: Adobe Illustrator 16.0.0, SVG Export Plug-In . SVG Version: 6.00 Build 0)  -->
<!DOCTYPE svg PUBLIC "-//W3C//DTD SVG 1.1//EN" "http://www.w3.org/Graphics/SVG/1.1/DTD/svg11.dtd">
<svg version="1.1" id="Capa_1" xmlns="http://www.w3.org/2000/svg" xmlns:xlink="http://www.w3.org/1999/xlink" x="0px" y="0px"
	 width="512px" height="512px" viewBox="0 0 512 512" enable-background="new 0 0 512 512" xml:space="preserve">
<path fill="#FFFFFF" d="M405.553,71.088h-51.147v-1.775c0-7.351-5.796-13.312-12.946-13.312H170.542
	c-7.15,0-12.949,5.961-12.949,13.312v1.775h-51.146c-7.151,0-12.948,5.959-12.948,13.312v72.766
	c0,50.164,26.412,78.174,74.43,79.154c4.513,11.474,10.425,21.912,17.665,30.911c10.165,12.63,22.465,22.079,36.093,27.964v68.294
	h-51.146c-7.15,0-12.949,5.959-12.949,13.312v65.89c0,7.351,5.798,13.312,12.949,13.312H341.46c7.15,0,12.948-5.961,12.948-13.312
	V376.8c0-7.353-5.798-13.312-12.948-13.312h-51.146v-68.294c13.626-5.885,25.928-15.334,36.093-27.964
	c7.24-8.999,13.152-19.438,17.665-30.911c48.018-0.98,74.429-28.989,74.429-79.154V84.399
	C418.5,77.047,412.702,71.088,405.553,71.088z M119.396,157.166V97.71h38.197v81.419c0,10.365,0.92,20.443,2.679,30.087
	C132.108,206.191,119.396,189.793,119.396,157.166z M328.511,390.108v39.268H183.49v-39.268H328.511L328.511,390.108z
	 M264.417,363.488h-16.834v-61.666c2.782,0.269,5.583,0.435,8.417,0.435c2.833,0,5.636-0.166,8.417-0.435V363.488z M256,275.634
	c-42.014,0-72.51-40.586-72.51-96.505V82.625h145.02v96.504C328.511,235.048,298.016,275.634,256,275.634z M392.604,157.166
	c0,32.627-12.712,49.025-40.876,52.051c1.758-9.644,2.678-19.722,2.678-30.087V97.71h38.198V157.166z"/>
</svg>
