<?xml version="1.0" encoding="utf-8"?>
<!-- Generator: Adobe Illustrator 16.0.0, SVG Export Plug-In . SVG Version: 6.00 Build 0)  -->
<!DOCTYPE svg PUBLIC "-//W3C//DTD SVG 1.1//EN" "http://www.w3.org/Graphics/SVG/1.1/DTD/svg11.dtd">
<svg version="1.1" id="svg2" xmlns:svg="http://www.w3.org/2000/svg"
	 xmlns="http://www.w3.org/2000/svg" xmlns:xlink="http://www.w3.org/1999/xlink" x="0px" y="0px" width="645px" height="585px"
	 viewBox="0 0 645 585" enable-background="new 0 0 645 585" xml:space="preserve">
<g id="layer1">
	<path id="path2417" fill="#FFFFFF" d="M302.806,494.648c-10.761-11.67-37.633-34.419-59.714-50.554
		c-65.425-47.809-74.329-54.728-100.893-78.396c-48.972-43.635-69.77-87.473-69.699-146.914c0.035-29.017,2.079-40.196,10.476-57.3
		c14.248-29.019,35.235-50.581,62.067-63.769c19.004-9.34,28.377-13.49,60.113-13.66c33.198-0.177,40.186,3.568,59.714,13.949
		c23.769,12.635,48.234,39.64,53.292,58.822l3.123,11.848l7.703-16.317c43.528-92.207,182.498-90.827,230.861,2.292
		c15.342,29.54,17.026,92.615,3.422,128.146c-17.746,46.347-51.078,81.681-128.13,135.829
		c-50.531,35.51-107.723,89.237-111.704,96.783C318.816,524.168,323.218,516.781,302.806,494.648z"/>
	<g id="g2221" transform="translate(129.28571,-64.285714)">
	</g>
</g>
</svg>
